# xmcd CD database file
#
# Track frame offsets:
#	150
#	12583
#	25031
#	47482
#	58893
#	78175
#	90456
#	105538
#	122931
#	137391
#	153128
#	171709
#
# Disc length: 2434 seconds
#
# Revision: 1
# Processed by: cddbd v1.5.2PL0 Copyright (c) Steve Scherf et al.
# Submitted via: CDex 1.51
#
DISCID=9109800c
DTITLE=Pasadena Roof Orchestrat - Happy Feet (XTape)
DYEAR=1987
DGENRE=Jazz
TTITLE0=01 Happy Feet 
TTITLE1=02 Caravan
TTITLE2=03 A Nightingale Sang in Berkeley Square
TTITLE3=04 I Got Rhythm 
TTITLE4=05  Georgia
TTITLE5=06 Cotton Club Stomp
TTITLE6=07 Im Crazy Bout My Baby
TTITLE7=08 When Its Sleepy Time Down South 
TTITLE8=09 Oh Donna Clara
TTITLE9=10 Making Wiki Waki Down in Waikiki 
TTITLE10=11 Just Squeeze Me
TTITLE11=12 Bei Mir Bist Du Schon 
EXTD=YEAR: 1987
EXTT0=
EXTT1=
EXTT2=
EXTT3=
EXTT4=
EXTT5=
EXTT6=
EXTT7=
EXTT8=
EXTT9=
EXTT10=
EXTT11=
PLAYORDER=
